<?xml version="1.0" encoding="UTF-8" standalone="no"?>
<!DOCTYPE svg PUBLIC "-//W3C//DTD SVG 1.1//EN" "http://www.w3.org/Graphics/SVG/1.1/DTD/svg11.dtd">
<svg width="100%" height="100%" viewBox="0 0 220 264" version="1.1" xmlns="http://www.w3.org/2000/svg" xmlns:xlink="http://www.w3.org/1999/xlink" xml:space="preserve" xmlns:serif="http://www.serif.com/" style="fill-rule:evenodd;clip-rule:evenodd;stroke-linejoin:round;stroke-miterlimit:2;">
    <g transform="matrix(1,0,0,1,-1175.864729,-2016.964787)">
        <g>
            <g transform="matrix(0.500577,0,0,0.500577,1106.293488,1952.223611)">
                <path d="M429.806,181.94L212.738,181.94C202.158,181.94 193.552,190.549 193.552,201.128L193.552,616.216C193.552,626.796 202.158,635.404 212.738,635.404L395.088,635.404C399.438,640.595 404.241,645.394 409.436,649.739L212.738,649.739C194.254,649.739 179.217,634.7 179.217,616.216L179.217,611.466L172.503,611.466C154.019,611.466 138.982,596.427 138.982,577.943L138.982,162.855C138.982,144.371 154.019,129.333 172.503,129.333L399.579,129.333L512.698,235.678L512.698,236.125L552.933,273.951L552.933,472.48C548.416,468.931 543.625,465.715 538.598,462.87L538.598,284.279L456.533,284.963L456.307,284.963C449.268,284.963 442.649,282.24 437.647,277.279C432.591,272.264 429.806,265.58 429.806,258.457L429.806,181.94ZM419.361,167.606L393.898,143.667L172.503,143.667C161.923,143.667 153.317,152.276 153.317,162.855L153.317,577.943C153.317,588.523 161.923,597.131 172.503,597.131L179.217,597.131L179.217,201.128C179.217,182.644 194.254,167.606 212.738,167.606L419.361,167.606ZM527.835,270.033L444.141,191.349L444.141,258.457C444.141,261.727 445.42,264.797 447.742,267.1C450.064,269.403 453.048,270.587 456.414,270.628L527.835,270.033ZM409.224,474.867L249.602,474.867L249.602,460.532L430.846,460.532C423.084,464.49 415.835,469.31 409.224,474.867ZM368.902,572.027L249.602,572.027L249.602,557.692L368.573,557.692C368.514,559.192 368.485,560.7 368.485,562.214C368.485,565.519 368.626,568.792 368.902,572.027ZM375.253,523.447L249.602,523.447L249.602,509.112L381.592,509.112C379.164,513.714 377.042,518.501 375.253,523.447ZM482.547,426.286L249.602,426.286L249.602,411.951L482.547,411.951L482.547,426.286ZM395.941,380.127L249.71,380.127L249.71,223.762L395.941,223.762L395.941,380.127ZM264.045,365.792L381.606,365.792L381.606,238.097L264.045,238.097L264.045,365.792ZM363.157,353.541L282.494,353.541L282.494,343.914C282.494,321.639 300.551,303.582 322.826,303.582C345.1,303.582 363.157,321.639 363.157,343.914L363.157,353.541ZM346.718,274.237C346.718,277.961 345.866,281.477 344.356,284.614C343.956,285.433 343.517,286.221 343.033,286.982C338.806,293.68 331.334,298.133 322.829,298.133C314.027,298.133 306.341,293.377 302.198,286.291C301.74,285.524 301.332,284.73 300.972,283.91C299.662,280.955 298.933,277.683 298.933,274.237C298.933,273.701 298.952,273.172 298.991,272.643C299.043,271.727 299.159,270.83 299.319,269.946C301.34,258.802 311.097,250.348 322.829,250.348C334.605,250.348 344.395,258.872 346.357,270.088C346.518,270.978 346.621,271.888 346.673,272.811C346.705,273.282 346.718,273.76 346.718,274.237Z" style="fill:rgb(5,150,105);"/>
            </g>
            <g transform="matrix(0.458832,0,0,0.458832,314.175023,1869.819905)">
                <path d="M2252.83,895.463C2196.308,895.463 2150.323,849.478 2150.323,792.955C2150.323,736.433 2196.308,690.457 2252.83,690.457C2309.352,690.457 2355.338,736.433 2355.338,792.955C2355.338,849.478 2309.352,895.463 2252.83,895.463Z" style="fill:rgb(5,150,105);"/>
            </g>
            <g transform="matrix(0.601652,0,0,0.601652,1168.182305,2009.943319)">
                <path d="M291.55,408.833C289.034,408.803 286.773,407.639 285.339,405.679L257.945,368.191C255.444,364.767 256.186,359.953 259.618,357.445C263.051,354.93 267.849,355.688 270.365,359.119L291.699,388.317L324.613,345.468C327.204,342.118 332.026,341.457 335.397,344.056C338.762,346.64 339.401,351.468 336.809,354.839L297.647,405.83C296.19,407.721 293.937,408.833 291.55,408.833Z" style="fill:white;fill-rule:nonzero;"/>
            </g>
        </g>
    </g>
</svg>
