<?xml version="1.0" encoding="UTF-8" standalone="no"?>
<!DOCTYPE svg PUBLIC "-//W3C//DTD SVG 1.1//EN" "http://www.w3.org/Graphics/SVG/1.1/DTD/svg11.dtd">
<svg width="100%" height="100%" viewBox="0 0 693 662" version="1.1" xmlns="http://www.w3.org/2000/svg" xmlns:xlink="http://www.w3.org/1999/xlink" xml:space="preserve" xmlns:serif="http://www.serif.com/" style="fill-rule:evenodd;clip-rule:evenodd;stroke-linejoin:round;stroke-miterlimit:2;">
    <g transform="matrix(1,0,0,1,-1665.614772,-1903.021369)">
        <g transform="matrix(0.174018,0,0,0.174018,1583.023955,1773.141855)">
            <path d="M1156.26,3919.26C1155.4,3835.5 1086.8,3768.29 1003.03,3769.15C919.269,3770 852.061,3838.6 852.919,3922.37C853.776,4006.13 922.378,4073.34 1006.14,4072.48C1089.9,4071.62 1157.11,4003.02 1156.26,3919.26ZM1097.04,4196.05C1101.81,4228.76 1132.2,4251.4 1164.91,4246.63C1197.61,4241.86 1220.26,4211.47 1215.49,4178.76C1210.72,4146.05 1180.33,4123.411 1147.62,4128.181C1114.91,4132.951 1092.27,4163.34 1097.04,4196.05ZM3971.25,1112.55C3967.42,1138.78 3985.57,1163.14 4011.79,1166.97C4038.02,1170.81 4062.38,1152.66 4066.22,1126.43C4070.05,1100.21 4051.9,1075.84 4025.67,1072.01C3999.45,1068.18 3975.08,1086.33 3971.25,1112.55ZM730.141,1729.61C742.761,1816.11 823.12,1876 909.624,1863.38C996.128,1850.76 1056.02,1770.4 1043.4,1683.9C1030.78,1597.4 950.417,1537.5 863.914,1550.12C777.414,1562.75 717.522,1643.1 730.141,1729.61ZM2471.81,840.317C2463.04,900.331 2504.58,956.098 2564.6,964.869C2624.62,973.639 2680.38,932.096 2689.15,872.079C2697.92,812.064 2656.38,756.299 2596.36,747.527C2536.35,738.757 2480.58,780.299 2471.81,840.317ZM3698.81,1231.64C3688.34,1303.28 3737.93,1369.84 3809.57,1380.31C3881.21,1390.78 3947.77,1341.19 3958.24,1269.55C3968.71,1197.92 3919.12,1131.36 3847.48,1120.89C3775.85,1110.42 3709.29,1160.01 3698.81,1231.64ZM498.797,1763.33C531.041,1795.58 583.324,1795.58 615.571,1763.33C647.814,1731.09 647.814,1678.81 615.571,1646.56C583.324,1614.31 531.043,1614.31 498.797,1646.56C466.55,1678.81 466.55,1731.09 498.797,1763.33ZM3021.57,4197.12C2941.21,4118.38 2812.22,4119.701 2733.49,4200.07C2654.75,4280.44 2656.07,4409.42 2736.44,4488.16C2816.81,4566.9 2945.79,4565.58 3024.53,4485.21C3103.27,4404.84 3101.94,4275.86 3021.57,4197.12ZM4454.51,2795.45C4453.87,2732.59 4402.38,2682.14 4339.52,2682.79C4276.65,2683.43 4226.21,2734.92 4226.85,2797.79C4227.49,2860.65 4278.98,2911.1 4341.85,2910.45C4404.72,2909.81 4455.16,2858.32 4454.51,2795.45ZM4227.33,2480.98C4028.5,3049.5 4413.79,3804.61 3480.22,3993.97C3141.29,4062.72 2895.98,3898.18 2568.07,4092.17C1987.79,4435.47 1640.63,4406.25 1390.38,4142.21C1202.9,3944.39 1205.17,3678.85 1015.7,3570.08C605.275,3334.46 496.746,2981.86 587.863,2558.59C635.77,2336.05 830.39,2185.64 950.197,2035.18C1090.52,1858.97 1138.31,1647.65 1205.71,1468.37C1505.9,669.899 2325.79,1187.1 2812.62,1025.76C3241.2,883.716 3464.01,1044.43 3594.99,1288.17C3862.09,1785.2 4534.7,1602.1 4227.33,2480.98Z" style="fill:url(#_Linear1);"/>
        </g>
        <g transform="matrix(1.456726,0,0,1.4628,154.66251,-925.085427)">
            <g transform="matrix(0.500577,0,0,0.500577,1106.293488,1952.223611)">
                <path d="M429.806,181.94L212.738,181.94C202.158,181.94 193.552,190.549 193.552,201.128L193.552,616.216C193.552,626.796 202.158,635.404 212.738,635.404L395.088,635.404C399.438,640.595 404.241,645.394 409.436,649.739L212.738,649.739C194.254,649.739 179.217,634.7 179.217,616.216L179.217,611.466L172.503,611.466C154.019,611.466 138.982,596.427 138.982,577.943L138.982,162.855C138.982,144.371 154.019,129.333 172.503,129.333L399.579,129.333L512.698,235.678L512.698,236.125L552.933,273.951L552.933,472.48C548.416,468.931 543.625,465.715 538.598,462.87L538.598,284.279L456.533,284.963L456.307,284.963C449.268,284.963 442.649,282.24 437.647,277.279C432.591,272.264 429.806,265.58 429.806,258.457L429.806,181.94ZM419.361,167.606L393.898,143.667L172.503,143.667C161.923,143.667 153.317,152.276 153.317,162.855L153.317,577.943C153.317,588.523 161.923,597.131 172.503,597.131L179.217,597.131L179.217,201.128C179.217,182.644 194.254,167.606 212.738,167.606L419.361,167.606ZM527.835,270.033L444.141,191.349L444.141,258.457C444.141,261.727 445.42,264.797 447.742,267.1C450.064,269.403 453.048,270.587 456.414,270.628L527.835,270.033ZM409.224,474.867L249.602,474.867L249.602,460.532L430.846,460.532C423.084,464.49 415.835,469.31 409.224,474.867ZM368.902,572.027L249.602,572.027L249.602,557.692L368.573,557.692C368.514,559.192 368.485,560.7 368.485,562.214C368.485,565.519 368.626,568.792 368.902,572.027ZM375.253,523.447L249.602,523.447L249.602,509.112L381.592,509.112C379.164,513.714 377.042,518.501 375.253,523.447ZM482.547,426.286L249.602,426.286L249.602,411.951L482.547,411.951L482.547,426.286ZM395.941,380.127L249.71,380.127L249.71,223.762L395.941,223.762L395.941,380.127ZM264.045,365.792L381.606,365.792L381.606,238.097L264.045,238.097L264.045,365.792ZM363.157,353.541L282.494,353.541L282.494,343.914C282.494,321.639 300.551,303.582 322.826,303.582C345.1,303.582 363.157,321.639 363.157,343.914L363.157,353.541ZM346.718,274.237C346.718,277.961 345.866,281.477 344.356,284.614C343.956,285.433 343.517,286.221 343.033,286.982C338.806,293.68 331.334,298.133 322.829,298.133C314.027,298.133 306.341,293.377 302.198,286.291C301.74,285.524 301.332,284.73 300.972,283.91C299.662,280.955 298.933,277.683 298.933,274.237C298.933,273.701 298.952,273.172 298.991,272.643C299.043,271.727 299.159,270.83 299.319,269.946C301.34,258.802 311.097,250.348 322.829,250.348C334.605,250.348 344.395,258.872 346.357,270.088C346.518,270.978 346.621,271.888 346.673,272.811C346.705,273.282 346.718,273.76 346.718,274.237Z" style="fill:white;"/>
            </g>
            <g transform="matrix(0.458832,0,0,0.458832,314.175023,1869.819905)">
                <path d="M2252.83,895.463C2196.308,895.463 2150.323,849.478 2150.323,792.955C2150.323,736.433 2196.308,690.457 2252.83,690.457C2309.352,690.457 2355.338,736.433 2355.338,792.955C2355.338,849.478 2309.352,895.463 2252.83,895.463Z" style="fill:white;"/>
            </g>
            <g transform="matrix(0.601652,0,0,0.601652,1168.182305,2009.943319)">
                <path d="M291.55,408.833C289.034,408.803 286.773,407.639 285.339,405.679L257.945,368.191C255.444,364.767 256.186,359.953 259.618,357.445C263.051,354.93 267.849,355.688 270.365,359.119L291.699,388.317L324.613,345.468C327.204,342.118 332.026,341.457 335.397,344.056C338.762,346.64 339.401,351.468 336.809,354.839L297.647,405.83C296.19,407.721 293.937,408.833 291.55,408.833Z" style="fill:rgb(4,113,79);fill-rule:nonzero;"/>
            </g>
        </g>
    </g>
    <defs>
        <linearGradient id="_Linear1" x1="0" y1="0" x2="1" y2="0" gradientUnits="userSpaceOnUse" gradientTransform="matrix(3979.904245,0,0,3800.003678,474.61174,2646.36015)"><stop offset="0" style="stop-color:rgb(5,150,105);stop-opacity:1"/><stop offset="1" style="stop-color:rgb(4,113,79);stop-opacity:1"/></linearGradient>
    </defs>
</svg>
